<svg width="40" height="40" xmlns="http://www.w3.org/2000/svg" xmlns:xlink="http://www.w3.org/1999/xlink"><defs><path id="path-1" d="M.054.036H14.4V14.4H.054z"/></defs><g id="Desktop" stroke="none" stroke-width="1" fill="none" fill-rule="evenodd"><g id="Mobile-Menu-1" transform="translate(-160 -610)"><g id="Group-23" transform="translate(43 611)"><g id="Instagram-Icon" transform="translate(118)"><g id="instagram-logo" transform="translate(12 12)"><mask id="mask-2" fill="#fff"><use xlink:href="#path-1"/></mask><path d="M12.958 0H1.442C.647 0 0 .647 0 1.442v11.516c0 .795.647 1.442 1.442 1.442h11.516c.795 0 1.442-.647 1.442-1.442V1.442C14.4.647 13.753 0 12.958 0zM7.2 4.32a2.885 2.885 0 012.88 2.88 2.885 2.885 0 01-2.88 2.88A2.885 2.885 0 014.32 7.2 2.885 2.885 0 017.2 4.32zm-5.4 8.638c-.214 0-.358-.144-.358-.358V6.48h1.51c-.073.217-.073.506-.073.72A4.333 4.333 0 007.2 11.52a4.333 4.333 0 004.32-4.32c0-.214 0-.503-.073-.72h1.511v6.12c0 .214-.144.358-.358.358H1.8zm11.158-9.716c0 .214-.144.358-.358.358h-1.442c-.214 0-.358-.144-.358-.358V1.8c0-.214.144-.358.358-.358H12.6c.214 0 .358.144.358.358v1.442z" id="Fill-1" fill="#FFF" mask="url(#mask-2)"/></g><circle id="Oval" stroke="#E7751D" stroke-width="1.04" cx="19.2" cy="19.2" r="19.2"/></g></g></g></g></svg>