<svg width="40" height="40" xmlns="http://www.w3.org/2000/svg"><g id="Desktop" stroke="none" stroke-width="1" fill="none" fill-rule="evenodd"><g id="Mobile-Menu-1" transform="translate(-100 -610)"><g id="Group-23" transform="translate(43 611)"><g id="LinkedIn-Icon" transform="translate(58)"><path d="M27.2 20.028V25.6h-3.087v-5.198c0-1.306-.446-2.197-1.563-2.197-.853 0-1.36.6-1.584 1.181-.08.208-.102.497-.102.788V25.6h-3.087s.041-8.805 0-9.716h3.087v1.377c-.006.01-.015.021-.02.031h.02v-.031c.41-.66 1.142-1.605 2.782-1.605 2.031 0 3.554 1.388 3.554 4.372zM14.547 11.2c-1.056 0-1.747.725-1.747 1.679 0 .932.671 1.679 1.706 1.679h.02c1.077 0 1.747-.747 1.747-1.68-.02-.953-.67-1.678-1.726-1.678zm-1.563 14.4h3.086v-9.716h-3.086V25.6z" id="linkedin-logo" fill="#FFF"/><circle id="Oval" stroke="#E7751D" stroke-width="1.04" cx="19.2" cy="19.2" r="19.2"/></g></g></g></g></svg>