<svg width="15" height="18" xmlns="http://www.w3.org/2000/svg"><g id="Desktop" stroke="none" stroke-width="1" fill="none" fill-rule="evenodd"><g id="Mobile-Menu-1" transform="translate(-44 -453)" fill="#FFF"><g id="Group-3" transform="translate(44 448)"><g id="Phone-Icon" transform="translate(0 5)"><path d="M2.254.126L4.057 0c.284-.02.486.258.563.51.457 1.485.727 2.267.82 3.65.056.82-1.059 1.321-1.61 1.888.4 2.494 2.887 6.045 5.094 7.274.72-.324 1.573-1.2 2.325-.867 1.267.56 1.91 1.082 3.15 2.02.209.158.401.443.286.703l-.735 1.652c-.631.444-1.505 1.066-2.078 1.144C6.88 18.65-1.875 6.147.468 1.687.736 1.177 1.62.567 2.254.126z" id="Path"/></g></g></g></g></svg>