<svg width="40" height="40" xmlns="http://www.w3.org/2000/svg"><g id="Desktop" stroke="none" stroke-width="1" fill="none" fill-rule="evenodd"><g id="Mobile-Menu-1" transform="translate(-42 -610)"><g id="Group-23" transform="translate(43 611)"><g id="Twitter-Icon"><circle id="Oval" stroke="#E7751D" stroke-width="1.04" cx="19.2" cy="19.2" r="19.2"/><path d="M28 14.503a6.608 6.608 0 01-1.98.575 3.635 3.635 0 001.518-2.013 6.654 6.654 0 01-2.194.882 3.36 3.36 0 00-2.512-1.147c-1.902 0-3.445 1.629-3.445 3.635 0 .287.031.563.088.828-2.867-.152-5.403-1.596-7.106-3.798a3.762 3.762 0 00-.467 1.83c0 1.26.61 2.374 1.533 3.022a3.26 3.26 0 01-1.558-.454v.044c0 1.763 1.19 3.234 2.763 3.57a3.381 3.381 0 01-1.558.06c.44 1.445 1.711 2.493 3.22 2.526a6.7 6.7 0 01-5.102 1.504 9.387 9.387 0 005.285 1.633c6.336 0 9.802-5.54 9.802-10.342l-.01-.471A7.166 7.166 0 0028 14.503z" id="Fill-1" fill="#FFF"/></g></g></g></g></svg>