<svg width="36" height="36" xmlns="http://www.w3.org/2000/svg"><g id="Desktop" stroke="none" stroke-width="1" fill="none" fill-rule="evenodd"><g id="Mobile-Home-1" transform="translate(-14 -2047)"><g id="Welding-Icon" transform="translate(15 2048)"><path d="M.205 17.109C.205 7.773 7.773.205 17.109.205s16.904 7.568 16.904 16.904-7.568 16.904-16.904 16.904S.205 26.445.205 17.109z" id="Stroke-1" stroke="#E7751D" stroke-width=".5"/><g id="Group-13" transform="translate(1.638 2.55)"><path d="M21.306 21.747c-9.166 2.477-11.124-2.711-10.624-6.608.244-1.904.547-3.824.886-4.996.066-.23.113-.42.45-.447.872-.07 1.746-.119 2.612-.243 1.531-.22 3.073-.427 4.584-.76 1.25-.277 2.483-.645 3.56-1.395a2.015 2.015 0 00.503-2.84 6.122 6.122 0 00-.92-1.01c-.956-.849-2.667-1.66-3.69-.893-1.348 1.012-2.815 1.148-4.254 1.426-2.313.447-4.554.94-6.116 3.61-.84 1.435-1.751 3.266-1.967 5-.23 1.843-.408 3.582-.42 4.524a6.813 6.813 0 005.65 6.801c1.458.254 6.767 1.168 9.746-2.17" id="Fill-3" fill="#E7751D"/><path d="M14.724.774c-1.768-.17-4.075 1.13-5.186 2.413-.415.481-2.533 2.704-4.936 11.373-.216.78-.347 1.582-.535 2.435-.62-2.511-2.038-4.45-3.967-6.208.624-.087 1.154-.174 1.687-.23.675-.071 2.255-.195 2.929-.27.085-.009.191-.142.224-.24.354-1.057.722-12.13 9.784-9.273" id="Fill-5" fill="#E7751D"/><path d="M15.345 19.079c.228-1.383 1.058-7.014 1.058-7.014s7.211-2.116 7.788-2.278c-.177 1.202-1.248 6.911-1.333 7.053-.139.233-6.088 1.884-7.513 2.239" id="Fill-7" fill="#888B8D"/><path d="M18.335 2.118c-.755 1.46-5.328.628-8.712 3.211.485-1.427 1.905-3.331 5.054-3.954 1.207-.24 2.661-.03 3.658.743" id="Fill-9" fill="#E7751D"/><path d="M15.981 11.666s5.9-1.761 8.12-2.365c-.302-.158-.6-.312-.9-.46-.128-.063-.326-.029-.48.01-2.687.685-4.754 1.401-7.45 2.048-.53.127-.623.402-.689.832-.23 1.513-.835 5.25-1.092 6.757-.099.573-.06.647.523.689.226.016.452.036.68.056.39-2.313 1.288-7.567 1.288-7.567" id="Fill-11" fill="#888B8D"/></g><path d="M31.487 24.752l1.258-4.167-1.744 4.04s1.427-6.206-.828-7.516c1.96 2.39.48 6.62.48 6.62l-1.78-4.54 1.513 5.39-3.204-4.363 2.492 4.153-2.681-1.964 2.71 2.638-6.042-2.483 4.909 2.818-4.758.025 5.212.632-3.882.91 3.834-.474-5.297 2.525 6.124-2.281-3.768 3.852 4.175-3.524s-.547.743-.755 1.165c.29-.343.99-1.165 1.253-1.53l.082-.115a17.264 17.264 0 001.502-2.553l-.805.742z" id="Fill-14" fill="#E7751D"/></g></g></g></svg>