<svg width="41" height="34" xmlns="http://www.w3.org/2000/svg" xmlns:xlink="http://www.w3.org/1999/xlink"><defs><path d="M19.424 50.491V33.836H14.15v-.088c-.029-1.26.47-2.549 1.495-3.867l6.416-8.174-4.966-3.867-8.921 7.646c-1.904 1.612-3.23 3.274-3.977 4.988-.747 1.714-1.12 3.948-1.12 6.702V50.49h16.347zm21.709 0V33.836h-5.318v-.088c0-1.26.513-2.549 1.539-3.867l6.372-8.174-4.922-3.867-8.921 7.646c-1.934 1.612-3.274 3.274-4.021 4.988-.747 1.714-1.12 3.948-1.12 6.702V50.49h16.39z" id="path-1"/></defs><g id="Page-1" stroke="none" stroke-width="1" fill="none" fill-rule="evenodd"><g id="quotes-icon" transform="translate(-3 -17)" fill-rule="nonzero"><g id="“"><use fill="#000" xlink:href="#path-1"/><use fill="#666" xlink:href="#path-1"/></g></g></g></svg>