<svg width="57" height="57" xmlns="http://www.w3.org/2000/svg"><g id="Desktop" stroke="none" stroke-width="1" fill="none" fill-rule="evenodd"><g id="Company-1" transform="translate(-882 -1334)"><g id="Safety_Icon" transform="translate(883 1335)"><g id="Group-18"><circle id="Oval" stroke="#999" stroke-width="1.536" cx="27.52" cy="27.52" r="27.52"/><g id="noun_Safety_1036567" transform="translate(13 12)" fill="#E7751D" fill-rule="nonzero" stroke="#E7751D" stroke-width=".4"><path d="M29.5 14h-1.657c-.775-4.995-4.462-9.134-9.343-10.5v-2A.5.5 0 0018 1h-2.5V0h-1v1H12a.5.5 0 00-.5.5v2C6.619 4.865 2.932 9.005 2.156 14H.5a.5.5 0 00-.5.5v3a.5.5 0 00.5.5h29a.5.5 0 00.5-.5v-3a.5.5 0 00-.5-.5zm-.5 3H1v-2h1.593a.5.5 0 00.497-.44c.562-4.7 3.907-8.654 8.41-10.029V8.5h1V2h2v4.5h1V2h2v6.5h1V4.532c4.503 1.375 7.848 5.329 8.41 10.027a.5.5 0 00.497.441H29v2zm.5 4H27v-1a.5.5 0 00-.5-.5h-23a.5.5 0 00-.5.5v1H.5a.5.5 0 00-.5.5v3a.5.5 0 00.5.5H3v.5c0 .099.03.195.084.277l2 3A.5.5 0 005.5 29h6a.5.5 0 00.39-.188l2-2.5a.516.516 0 00.074-.126L14.838 24h.324l.873 2.186a.533.533 0 00.074.127l2 2.5A.502.502 0 0018.5 29h6a.5.5 0 00.416-.223l2-3A.503.503 0 0027 25.5V25h2.5a.5.5 0 00.5-.5v-3a.5.5 0 00-.5-.5zM1 24v-2h2v2H1zm25 1.349L24.233 28H18.74l-1.803-2.255-.973-2.431A.501.501 0 0015.5 23h-1a.501.501 0 00-.464.314l-.973 2.431L11.26 28H5.768L4 25.349V20.5h22v4.849zM29 24h-2v-2h2v2z" id="Shape"/></g></g></g></g></g></svg>